<svg width="291" height="69" viewBox="0 0 291 69" fill="none" xmlns="http://www.w3.org/2000/svg">
<path d="M290.489 20.5869V49.5908C290.489 55.8768 286.463 59.7918 280.067 59.7918H273.009V55.0497H278.854C282.879 55.0497 284.864 53.0095 284.864 49.1497V45.0141C282.328 47.4954 278.909 48.9842 275.104 48.9842C266.944 48.9842 260.492 42.5879 260.492 34.4272C260.492 26.3766 266.999 19.9803 275.104 19.9803C278.964 19.9803 282.383 21.5243 284.919 24.0607V20.5869H290.489ZM266.006 34.4272C266.006 39.8309 270.252 44.0767 275.49 44.0767C280.784 44.0767 284.975 39.7758 284.975 34.4272C284.975 29.1337 280.729 24.8879 275.49 24.8879C270.252 24.8879 266.006 29.1888 266.006 34.4272Z" fill="white"/>
<path d="M220.162 31.8907V48.7085H214.593V20.5869H220.162V23.5645C222.092 21.3037 224.904 19.9803 228.102 19.9803C232.348 19.9803 235.656 22.0757 237.311 25.2738C239.13 22.0205 242.494 19.9803 246.519 19.9803C252.75 19.9803 256.996 24.6673 256.996 30.5673V48.7085H251.427V31.7253C251.427 27.7552 248.89 24.9981 245.141 24.9981C241.281 24.9981 238.579 27.8103 238.579 31.8907V48.7085H233.01V31.7253C233.01 27.7552 230.473 24.9981 226.724 24.9981C222.864 24.9981 220.162 27.8103 220.162 31.8907Z" fill="white"/>
<path d="M207.29 16.672C205.416 16.672 203.927 15.1832 203.927 13.3084C203.927 11.4888 205.416 10 207.29 10C209.11 10 210.544 11.4888 210.544 13.3084C210.544 15.1832 209.11 16.672 207.29 16.672ZM210.047 20.587V48.7086H204.478V20.587H210.047Z" fill="white"/>
<path d="M175.271 40.9338C175.271 36.0263 178.634 33.1038 184.479 32.7179L193.246 32.0562V30.2365C193.246 27.0384 191.151 25.1085 187.457 25.1085C184.755 25.1085 182.273 25.9356 179.902 27.8104L177.421 23.7851C180.343 21.3038 184.038 20.0907 188.229 20.0907C194.57 20.0907 198.705 23.7851 198.705 29.5197V42.202C198.705 43.2497 199.257 43.8011 200.359 43.8011H201.793V48.7086H199.036C196.334 48.7086 194.349 47.3852 193.632 45.1796C191.758 47.7712 188.614 49.3151 184.865 49.3151C179.351 49.3151 175.271 45.8413 175.271 40.9338ZM180.619 40.8787C180.619 43.3048 182.825 44.9591 185.968 44.9591C189.993 44.9591 193.246 42.1469 193.246 38.6179V36.302L185.306 36.9637C182.218 37.1842 180.619 38.5628 180.619 40.8787Z" fill="white"/>
<path d="M142.786 20.587H148.3V24.116C150.837 21.5244 154.421 19.9253 158.336 19.9253C166.607 19.9253 173.113 26.5422 173.113 34.6478C173.113 42.8086 166.607 49.3152 158.336 49.3152C154.421 49.3152 150.892 47.7712 148.355 45.1796V59.7919H142.786V20.587ZM148.245 34.6478C148.245 40.0516 152.601 44.4077 157.95 44.4077C163.243 44.4077 167.599 40.0516 167.599 34.6478C167.599 29.244 163.243 24.8879 157.95 24.8879C152.546 24.8879 148.245 29.244 148.245 34.6478Z" fill="white"/>
<path d="M113.609 38.5628V20.587H119.179V37.5152C119.179 41.4301 121.825 44.3526 125.795 44.3526C129.821 44.3526 132.688 41.4301 132.688 37.2946V20.587H138.257V48.7087H132.688V45.5657C130.758 47.8816 127.78 49.2601 124.417 49.2601C117.965 49.2601 113.609 44.5731 113.609 38.5628Z" fill="white"/>
<path d="M100.296 49.3151C93.4589 49.3151 88.9925 45.345 88 39.9963H93.3486C94.0103 43.1945 96.7673 44.8487 100.241 44.8487C103.274 44.8487 105.149 43.415 105.149 41.2646C105.149 39.5552 103.936 38.3421 101.289 37.6253L96.1056 36.3571C91.0879 35.0888 88.4963 32.4421 88.4963 28.4168C88.4963 23.2888 92.6318 19.9803 98.3113 19.9803C104.873 19.9803 109.174 24.0056 109.946 29.2991H104.597C103.936 26.1009 101.123 24.4467 98.2561 24.4467C95.5542 24.4467 93.9552 25.8804 93.9552 27.8654C93.9552 29.6299 95.3337 30.843 97.9804 31.5047L102.833 32.7729C108.016 34.0963 110.608 36.7982 110.608 40.8234C110.608 45.6758 106.582 49.3151 100.296 49.3151Z" fill="white"/>
<path d="M24.5557 0.944336H68.0557V44.4443C68.0557 57.4844 57.4844 68.0557 44.4443 68.0557H24.5557C11.5156 68.0557 0.944336 57.4844 0.944336 44.4443V24.5557C0.944336 11.5156 11.5156 0.944336 24.5557 0.944336Z" stroke="#0866FF" stroke-width="1.88889"/>
<path d="M56.0333 39.7645C56.0106 39.3746 55.8289 38.9072 55.5583 38.629C53.7187 36.725 51.8488 34.8475 49.9599 32.9928C48.9682 32.0219 47.9273 31.104 46.9053 30.1671L46.7274 30.0025L46.5097 29.8C41.7044 35.6992 37.0107 41.4622 32.3171 47.2252C32.2168 47.176 32.1146 47.1268 32.0124 47.0775C31.9915 46.752 31.9537 46.4246 31.9537 46.0991C31.948 43.6387 31.9556 41.1783 31.9461 38.7179C31.9423 37.5464 31.8193 37.4347 30.6327 37.4347C28.142 37.4328 25.6513 37.4328 22.8938 37.4328C27.7389 31.4787 32.4609 25.676 37.183 19.8732C37.2927 19.9054 37.4006 19.9376 37.5104 19.9698C37.5482 20.2934 37.6164 20.617 37.6164 20.9407C37.6258 23.3708 37.622 25.799 37.622 28.2272C37.622 29.6637 37.6523 29.694 39.1323 29.694C41.5511 29.6959 43.9717 29.6959 46.5949 29.6959L46.9488 29.6845H56.0541C56.0541 27.7048 56.0598 25.8217 56.0541 23.9367C56.0485 22.1065 55.2195 20.7287 53.6581 19.8203C48.1657 16.6217 42.6677 13.4365 37.1602 10.2645C35.5913 9.36172 33.9617 9.35415 32.3947 10.255C26.855 13.4346 21.3248 16.6312 15.8098 19.8505C14.2503 20.7609 13.4724 22.186 13.4421 23.9972C13.4232 25.0684 13.3891 26.1453 13.4592 27.2128C13.4875 27.6272 13.6901 28.1193 13.9758 28.4165C16.0785 30.5949 18.2228 32.7316 20.3501 34.8854C21.1299 35.6765 21.8983 36.4808 22.8143 37.4272H13.4497C13.4497 39.5507 13.374 41.536 13.4743 43.5138C13.5519 45.0752 14.3298 46.3584 15.7 47.157C21.3002 50.4237 26.9061 53.6771 32.5347 56.8907C34.0677 57.7651 35.6689 57.6742 37.2076 56.7734C38.2125 56.1866 39.2289 55.617 40.2376 55.0341C44.6758 52.4658 49.1158 49.8975 53.5521 47.3236C55.1816 46.3792 56.056 44.9843 56.0541 43.0747C56.0541 41.9713 56.0958 40.866 56.0333 39.7645Z" fill="#0866FF"/>
</svg>
